<?xml version="1.0" encoding="UTF-8"?>
<svg xmlns="http://www.w3.org/2000/svg" version="1.1" viewBox="0 0 62.99347 90.7081828">
  <defs>
    <style>
      .cls-1 {
        fill: #1a1a18;
        font-family: MinionPro-Regular, 'Minion Pro';
        font-size: 15.6086302px;
        isolation: isolate;
      }

      .cls-2 {
        fill: #e3000f;
        stroke: #e3000f;
        stroke-miterlimit: 10;
        stroke-width: 1.3686876px;
      }
    </style>
  </defs>
  <!-- Generator: Adobe Illustrator 28.7.4, SVG Export Plug-In . SVG Version: 1.2.0 Build 166)  -->
  <g>
    <g id="Ebene_1">
      <text class="cls-1" transform="translate(29.725244 49.3251948)"><tspan x="0" y="0"> </tspan></text>
      <g>
        <path class="cls-2" d="M46.3601164,90.7081828v-25.0702057c0-5.031601,1.0572891-8.9047813,2.177124-13.0055199,1.1224976-4.1093941,2.2835846-8.3578453,2.2835846-13.7900124v-8.9314003c0-3.2836552-2.6681747-5.9544926-5.9478302-5.9544926-1.3274345,0-2.5550613.4378242-3.5458145,1.177063-.9548187-2.0141087-3.0055237-3.4100761-5.3756065-3.4100761-1.3274345,0-2.5550613.4378185-3.5458107,1.1770573-.9548225-2.0141068-3.0055275-3.4100761-5.3756142-3.4100761-1.7752342,0-3.3708153.7838192-4.4613724,2.0220928-1.0898933-1.2382736-2.6854782-2.0220928-4.4607124-2.0220928-3.2796593,0-5.9471703,2.6708374-5.9471703,5.9544888v6.8594112c-1.4964409.521656-2.7280598,1.6188698-3.4207191,3.1013336l-2.9383202,6.3078117c-1.8950043,4.0714607-.9801064,8.8821602,2.2775974,11.9708557l8.5421543,8.0970192v28.9267426M15.1344809,25.4450088c0-1.6414909,1.3340874-2.9775772,2.9735832-2.9775772s2.9742508,1.3360863,2.9742508,2.9775772v9.1529751l-4.4367561-2.071991c-.4830666-.2255669-.9914169-.3832626-1.5110779-.4730873v-6.6078968ZM24.0558981,25.4450088c0-1.6414909,1.3340912-2.9775772,2.9742508-2.9775772,1.6394997,0,2.973587,1.3360863,2.973587,2.9775772v11.164423c0,.8483582.1789856,1.6548004.4997025,2.386055l-6.4475403-3.0101852v-10.5402927ZM32.977323,27.6780276c0-1.6414948,1.3347511-2.9775772,2.9742508-2.9775772,1.6394958,0,2.973587,1.3360825,2.973587,2.9775772v8.9314041c0,1.6414909-1.3340912,2.9775772-2.973587,2.9775772-1.6394997,0-2.9742508-1.3360863-2.9742508-2.9775772v-8.9314041ZM41.898744,29.9110446c0-1.6414948,1.3347511-2.9775753,2.9742508-2.9775753,1.6394958,0,2.9735794,1.3360806,2.9735794,2.9775753v8.9314003c0,1.6414986-1.3340836,2.9775772-2.9735794,2.9775772-1.6394997,0-2.9742508-1.3360786-2.9742508-2.9775772v-8.9314003ZM19.5951895,87.2655101v-26.1241684c0-.409874-.1683388-.8004532-.4644356-1.0812454l-9.0065899-8.5368309c-2.3268356-2.2064018-2.980238-5.6437569-1.6268539-8.5514679l2.9376545-6.3064728c.7126217-1.5263863,2.4945107-2.1225662,3.9523582-1.4412155l14.6889381,6.8567467c-2.0580215,2.783287-5.8619995,3.8345833-9.116375,2.3155212l-4.0428543-1.8870163c-.745224-.3479958-1.6295166-.0259514-1.9761772.7192764-.3473282.7452202-.0246201,1.6301804.7192764,1.9788399l4.0428505,1.8876839c1.6567993.7731743,3.5198631,1.1171722,5.4428101.9195518,3.1372719,3.3941078,4.8579445,7.7796288,4.8579445,12.4313087,0,.8210754.6660461,1.4884491,1.4871254,1.4884491.8204155,0,1.4864616-.6673737,1.4864616-1.4884491,0-4.8878899-1.6335106-9.5229301-4.6416931-13.2823296,2.2150497-.9867554,4.0974121-2.7440224,5.1992798-5.1101189.0006676-.0019989.0019951-.0026627.0019951-.003994.738575.3300323,1.5549965.5143433,2.414669.5143433,1.3274307,0,2.5543938-.4378204,3.5451469-1.1763916.9548187,2.0134354,3.0055199,3.4094048,5.3762741,3.4094048.9162292,0,1.7832184-.2082634,2.5597153-.5802078-.4105377,2.6721649-1.0752563,5.1087875-1.7639198,7.6312447-1.1218338,4.1093864-2.2829208,8.3578453-2.2829208,13.7900047v21.6255341"/>
        <path class="cls-2" d="M32.9862417,7.5357594V2.1734595c0-.8224053-.6673775-1.4891157-1.4891243-1.4891157-.8224106,0-1.4897842.6667104-1.4897842,1.4891157v5.3622999c0,.8224106.6673737,1.4891262,1.4897842,1.4891262.8217468,0,1.4891243-.6667156,1.4891243-1.4891262Z"/>
        <path class="cls-2" d="M18.8364576,12.418386c.711956-.4112024.9561501-1.3221111.5456123-2.0347328l-2.2343483-3.8711843c-.4112053-.711957-1.322113-.9561491-2.0347328-.5449467-.7126236.4105425-.9568176,1.3214455-.5456123,2.0347376l2.2343483,3.8705139c.4092102.7099628,1.3201141.9581509,2.0347328.5456123Z"/>
        <path class="cls-2" d="M6.7898115,19.6507392l-3.8711834-2.2343445c-.7132893-.4112072-1.6235294-.1663456-2.0347347.5456123-.4112053.7126217-.1663456,1.6235237.5456123,2.0347328l3.8711834,2.2343483c.7092953.4092064,1.6215324.1696701,2.0347328-.5456123.4105396-.7126217.1663456-1.6235294-.5456104-2.0347366Z"/>
        <path class="cls-2" d="M46.1919111,11.8730435l2.2343445-3.8711796c.4112091-.7126265.1663437-1.6235294-.5456085-2.0347376-.7126236-.4112024-1.6235275-.1663446-2.0347366.5456114l-2.2343483,3.8711843c-.4105377.7126217-.1663437,1.6235304.5456123,2.0347385.7099609.4092064,1.6215363.1696701,2.0347366-.5456171Z"/>
        <path class="cls-2" d="M57.6932768,22.2308841l3.8711853-2.2343426c.7119522-.4112072.9561539-1.3214455.5449448-2.0347328-.4112015-.7119617-1.3214493-.9561539-2.0347366-.5449467l-3.8705139,2.2336788c-.7126236.4112072-.9568176,1.3221111-.5456161,2.0347328.4098816.7099609,1.3201218.958149,2.0347366.5456104Z"/>
      </g>
    </g>
  </g>
</svg>