<?xml version="1.0" encoding="UTF-8"?>
<svg xmlns="http://www.w3.org/2000/svg" version="1.1" viewBox="0 0 59.370285 59.3710022">
  <!-- Generator: Adobe Illustrator 28.7.4, SVG Export Plug-In . SVG Version: 1.2.0 Build 166)  -->
  <g>
    <g id="Ebene_1">
      <path d="M59.370285,29.6855164c0-7.993103-.0331116-9.039917-.1766968-12.1853943-.1327057-2.8692017-.5596008-5.0932922-1.3816986-7.2120056-.7452087-1.9798889-1.9327087-3.8045959-3.436615-5.2807007-1.4833832-1.5126953-3.3085938-2.702301-5.2840881-3.4448853-2.1298981-.8271179-4.3546143-1.2529907-7.2198181-1.3832397-3.1737823-.1450806-4.2264709-.1792908-12.1860962-.1792908-7.9483948,0-9.002594.0335999-12.1871948.1782227-2.8666992.1313171-5.0903015.5571899-7.2099915,1.3808899-1.9823914.7460022-3.8070984,1.9331055-5.2807007,3.4346008-1.5126953,1.484375-2.7026978,3.3101196-3.4458008,5.285614-.8262024,2.1254883-1.2519836,4.3511047-1.3833923,7.2207947-.1445007,3.125885-.1781921,4.1694031-.1781921,12.1853943,0,8.0164795.0336914,9.0594788.1781921,12.1874084.1298828,2.8651733.5561829,5.0888977,1.3808899,7.2089844.7456055,1.9823914,1.9325867,3.8075867,3.4346008,5.282196,1.487793,1.514801,3.3129883,2.7041016,5.2842102,3.444397,2.1283875.8270874,4.3539734,1.2539062,7.2201843,1.3847351,3.184082.1435852,4.2383118.1777649,12.188324.1777649,7.9486694,0,9.0033875-.0341797,12.184967-.1777649,2.8681183-.1308289,5.0928192-.5576477,7.2158203-1.3818359,3.9990845-1.5469055,7.1787109-4.7265625,8.722702-8.7236938.8269958-2.132782,1.2528839-4.3583984,1.3817902-7.2147827.1446075-3.1338196.1786041-4.1786194.1786041-12.1874084h0ZM53.7618866,29.6864014c0,7.8711243-.0301056,8.8076172-.1717072,11.9317322-.1308899,2.8641663-.6083984,4.4119873-1.0088043,5.4393921-.9755859,2.532196-2.9901886,4.5467834-5.5253906,5.5283813-1.032196.3993225-2.5839996.875-5.4385986,1.0058289-3.106308.1405945-4.0390015.1708679-11.9328156.1708679-7.8926086,0-8.8246765-.0302734-11.9306641-.1708679-2.8579102-.131897-4.4135437-.6094055-5.4492188-1.0108032-1.25-.4619141-2.4100952-1.2186279-3.3491211-2.1854248-.9506836-.9229736-1.704071-2.0822144-2.1708984-3.3439026-.3978882-1.030304-.8744812-2.5839844-1.0038757-5.4334717-.1420898-3.1300354-.1724243-4.0675354-.1724243-11.9317322,0-7.865509.0303345-8.8020935.1724243-11.931488.1298828-2.8565063.6083984-4.4125977,1.0106812-5.4487.460022-1.2479858,1.2164001-2.4086914,2.1846008-3.3496094.9229126-.9507141,2.0820312-1.7041016,3.3442993-2.1698914,1.0249023-.3984985,2.5751038-.875,5.4335327-1.0059204,3.0996704-.1410828,4.0307617-.1713867,11.931366-.1713867,7.8853149,0,8.818924.030304,11.9321136.1734009,2.8614044.1298828,4.4151001.6079102,5.448288,1.0101929,1.2471161.4595032,2.4072113,1.2154236,3.3476105,2.1841125.9503021.9219055,1.7040863,2.0811157,2.1719055,3.3433228.3984833,1.0267944.8760834,2.579071,1.0049896,5.4344788.1416016,3.1231079.1717072,4.0585938.1717072,11.931488h0ZM29.6852722,44.9989319c-8.443573,0-15.3131714-6.8692322-15.3131714-15.3134155,0-8.4432983,6.8695984-15.3124084,15.3131714-15.3124084,8.443924,0,15.3131104,6.8691101,15.3131104,15.3124084,0,8.4441833-6.8691864,15.3134155-15.3131104,15.3134155h0ZM29.6852722,19.9815369c-5.3507996,0-9.7047729,4.3534851-9.7047729,9.7039795,0,5.3505859,4.3539734,9.7039795,9.7047729,9.7039795,5.3511963,0,9.7047119-4.3533936,9.7047119-9.7039795,0-5.3504944-4.3535156-9.7039795-9.7047119-9.7039795h0ZM49.1438904,13.9165344c-.0010071,2.0326843-1.656311,3.6864624-3.6895142,3.6864624s-3.6875-1.6537781-3.6875-3.6864624c0-2.0342102,1.6542969-3.6890259,3.6875-3.6890259,2.0342102,0,3.6895142,1.6548157,3.6895142,3.6890259h0Z"/>
    </g>
  </g>
</svg>