<?xml version="1.0" encoding="UTF-8"?>
<svg xmlns="http://www.w3.org/2000/svg" version="1.1" viewBox="0 0 60.5053864 40.3201904">
  <!-- Generator: Adobe Illustrator 28.7.4, SVG Export Plug-In . SVG Version: 1.2.0 Build 166)  -->
  <g>
    <g id="Ebene_1">
      <path d="M60.5053864,37.8202209V2.5c0-1.3807983-1.1191101-2.5-2.5-2.5H2.4999695C1.1188965,0,0,1.1192017,0,2.5v35.3202209c0,1.3807678,1.1188965,2.4999695,2.4999695,2.4999695h55.5054169c1.3808899,0,2.5-1.1192017,2.5-2.4999695h0ZM52.2911835,5l-19.737915,18.2320862c-1.246994,1.1524048-3.3542023,1.1513062-4.6017914.0007935L8.2139893,5h44.0771942ZM55.5053711,35.3201904H5V8.837677l19.5588684,18.0682068c1.5700073,1.4492188,3.6319275,2.1740112,5.693512,2.1740112s4.1240845-.7247925,5.6936188-2.1751099l19.5593719-18.0672913v26.4826965h0Z"/>
    </g>
  </g>
</svg>