<?xml version="1.0" encoding="UTF-8"?>
<svg xmlns="http://www.w3.org/2000/svg" version="1.1" viewBox="0 0 68.9120803 65.7890625">
  <defs>
    <style>
      .cls-1 {
        fill: #e3000f;
      }
    </style>
  </defs>
  <!-- Generator: Adobe Illustrator 28.7.4, SVG Export Plug-In . SVG Version: 1.2.0 Build 166)  -->
  <g>
    <g id="Ebene_1">
      <path class="cls-1" d="M18.3859958,61.9570312c.0527344-.1679688.2089844-.28125.3818359-.28125.0175781,0,.0361328.0039062.0546875.0039062,2.0986328.2929688,4.0966797.4335938,6.1083984.4335938,1.625,0,3.2597656-.0976562,4.859375-.2929688,5.2382832-.6328125,9.5456562-2.234375,13.1687031-4.8945312,2.2431641-1.6484375,4.1455078-3.7070312,5.6552734-6.125.0732422-.1171875.2021484-.1875.3388672-.1875.0146484,0,.0302734,0,.0449219.0039062.4199219.046875.7978516.0703125,1.1884766.0703125,1.0546875,0,2.2011719-.1640625,3.5048828-.5,2.3515625-.6015625,4.7119141-1.6054688,7.2158203-3.0703125.5175781-.3046875,1.0263672-.6210938,1.5322266-.9414062.0654297-.0390625.1396484-.0625.2138672-.0625.0966797,0,.1923828.0351562.2685547.1054688.1328125.1210938.1699219.3125.0888672.4765625-1.5605469,3.1210938-3.2890625,5.7734375-5.2851562,8.1015625-4.546875,5.3125-10.3408203,8.7304688-17.2207031,10.1601562-2.6911621.5585938-5.2155762.8320312-7.7155762.8320312-1.3037128,0-2.6171894-.078125-3.9042988-.2304688-3.6064453-.4296875-7.0712891-1.4804688-10.2988281-3.125-.1738281-.0898438-.2587891-.2890625-.2001953-.4765625h0ZM42.9707145,18.8554688c0,.0429688.0019531.0546875.0429688.2304688.015625.0703125.0507812.1367188.0996094.1875,2.4794922,2.6210938,3.5117188,5.6757812,3.0683594,9.0820312-.3388672,2.59375-1.2431641,4.6796875-2.7636719,6.3789062-1.9208984,2.1445312-4.5449219,3.3632812-7.7988281,3.625-.151123.0117188-.2832031.109375-.3395996.2539062-.4746094,1.1953125-1.2294922,2.1796875-2.2431641,2.9179688-.1230469.0898438-.1845703.2421875-.1572266.3945312.0263672.1523438.1367188.2734375.2832031.3164062,1.75.5,3.2399902.765625,4.6914062.8398438.2509766.0117188.4978027.0195312.7409668.0195312,2.1435547,0,3.9755859-.5,5.6005859-1.5273438,1.3066406-.828125,2.4394531-1.9648438,3.5634766-3.5820312,1.8535156-2.6640625,3.1025391-5.703125,3.7138672-9.0390625.4941406-2.6992188.5166016-4.9492188.0693359-7.078125-.5146484-2.4570312-1.6953125-4.2734375-3.6074219-5.5546875-1.4912109-.9960938-3.1376953-1.5039062-4.2460938-1.796875-.0332031-.0117188-.0683594-.015625-.1025391-.015625-.0966797,0-.1904297.0351562-.2646484.1015625-.1005859.0859375-.1494141.21875-.1318359.3515625.1650391,1.2109375.0976562,2.4570312-.21875,3.8945312h0ZM18.6682224,40.1328125c1.6015625,2.34375,4.0146484,3.5585938,7.171875,3.6054688l.1679688.0039062c.4580078,0,.9228516-.03125,1.3730469-.0585938.265625-.0195312.5332031-.0351562.8066406-.046875,0,0,.1201172-.0039062.1230469-.0039062.0605469,0,.1191406.015625.1738281.0390625,2.0019531.9648438,4.0605488,1.5390625,5.4355488,1.8828125.1464844.0390625.2597656.15625.2929688.3007812.0322266.1484375-.0205078.3046875-.1376953.3984375-1.7978516,1.46875-3.6201191,2.390625-5.5693378,2.8164062-.8691406.1914062-1.7539062.2890625-2.6318359.2890625-1.5722656,0-3.1542969-.296875-4.8369141-.9023438-2.3671875-.8515625-4.4921875-2.0898438-6.3144522-3.6757812-1.2900391-1.1210938-2.1972656-2.59375-2.84375-3.75-1.6708984-2.984375-2.4228516-6.1054688-2.234375-9.265625.0966797-1.6328125.4960938-3.15625,1.1865234-4.5234375,1.1074219-2.1914062,2.9794922-3.6210938,5.7236319-4.375.0351562-.0078125.0703125-.0117188.1054688-.0117188.1152344,0,.2275391.046875.3046875.140625.1005859.1171875.1240234.28125.0595703.421875-.1201172.265625-.2314453.5234375-.3300781.7851562-2.0957022,5.5859375-1.4316397,10.9453125,1.9736328,15.9296875h0ZM32.7561149,35.3125c.0458984.0195312.09375.0273438.1416016.0273438.1484375,0,.2900391-.0859375.359375-.2265625,1.0046387-2.0507812,1.5009766-3.9140625,1.5583496-5.9101562l-.0183105-.2421875c-.0158691-.1953125-.0341797-.4257812-.0656738-.65625-.2167969-1.6601562-.7832031-2.8164062-1.7800293-3.6328125-.8144531-.6679688-1.8125019-1.1015625-3.0517597-1.3164062-.2119141-.0390625-.3867188-.0742188-.5683594-.1132812-.1464844-.03125-.2617188-.0546875-.3710938-.0546875-.0664062,0-.1308594.015625-.1894531.046875-.1376953.0742188-.2246094.203125-.4804688.6054688l-.1826172.2851562c-1.1044922,1.7070312-1.6337891,3.765625-1.6201172,6.296875.0058594.7890625.2617188,1.46875.7822266,2.0820312.5009766.5976562,1.1171875,1.0546875,1.8291016,1.359375,1.1240234.484375,2.2832031.9257812,3.4501972,1.3710938l.2070312.078125h0ZM18.7619724,28.8007812c.1923828-1.8398438.6328125-3.7773438,1.3476562-5.921875.1279297-.375.2734375-.484375.6757812-.5117188.4003906-.0273438.7978516-.0390625,1.1933594-.0390625,1.0654297,0,2.1289062.09375,3.1601562.2851562.1240234.0234375.2304688.1015625.2861328.2148438s.0556641.2460938-.0019531.359375c-.3007812.578125-.578125,1.109375-.8291016,1.65625-.6455078,1.4101562-1.0292969,2.8476562-1.1416016,4.2734375-.2197266,2.8359375.8789062,5.1523438,3.2646484,6.8828125,1.5097656,1.09375,3.2363281,1.703125,4.5722656,2.1132812.1240234.0390625.2216797.1328125.2626953.2578125.0410156.1210938.0195312.2578125-.0576172.3632812-.2568359.3476562-.5820312.6484375-.9921875.9179688-1.1464844.7460938-2.4638672,1.109375-4.0273438,1.109375-.1865234,0-.3779297-.0078125-.5722656-.015625-3.1503906-.171875-5.2763672-1.859375-6.5009766-5.1601562-.71875-1.9335938-.921875-4.0898438-.6396484-6.7851562h0ZM21.9826755,19.5195312c.0751953.078125.1806641.1210938.2900391.1210938h.4599609c1.5927734,0,2.9091797.1367188,4.1416016.4375.03125.0078125.0634766.0117188.0947266.0117188.1269531,0,.2490234-.0625.3251953-.1679688.8544922-1.1953125,2.0097656-2.125,3.4355469-2.7617188,1.2578125-.5585938,2.5693378-.8320312,4.008791-.8320312,1.0019531,0,2.0791016.140625,3.2041016.4101562.6394043.15625,1.2722168.3554688,1.8962402.5546875l.1992188.0625c.0390625.0117188.0800781.0195312.1201172.0195312.0751953,0,.1494141-.0195312.2148438-.0625.0996094-.0625.1660156-.1679688.1816406-.2851562.0322266-.2382812.0585938-.4726562.0683594-.7109375.0839844-1.8632812-.5419922-3.28125-1.9130859-4.34375-1.173584-.90625-2.5476074-1.5117188-4.0856934-1.8046875-.8740234-.1640625-1.7695312-.2460938-2.6621113-.2460938-1.6923828,0-3.4072266.2851562-5.2421875.8789062-1.2978516.421875-2.3183594,1.1914062-3.1181641,2.359375-.8759766,1.2773438-1.4052734,2.828125-1.6171875,4.7382812-.0498047.4414062-.0810547.8828125-.1113281,1.3164062-.0068359.1132812.0322266.2226562.109375.3046875h0ZM43.3789177,26.421875c.3310547,3.1367188-.9736328,5.6445312-3.9892578,7.6679688-.7021484.4726562-1.5007324.8476562-2.3718262,1.1171875-.0390625.0117188-.0791016.015625-.1181641.015625-.1057129,0-.2092285-.0429688-.2854004-.1210938-.104248-.1054688-.1416016-.2617188-.0944824-.4023438.2038574-.6289062.4130859-1.2734375.5878906-1.9179688.5673828-2.0976562.6901855-3.8632812.3864746-5.5546875-.5039062-2.8125-2.1687012-4.8164062-4.9489746-5.953125-.4746094-.1953125-.9716816-.3242188-1.4521503-.4492188-.140625-.0351562-.2851562-.15625-.3212891-.296875s-.0292969-.3007812.0771484-.3984375c.0722656-.0703125.1455078-.1328125.2226562-.1914062.7460938-.5820312,1.6611347-.9179688,2.7177753-1,.2978516-.0234375.59375-.0390625.8857422-.0390625,1.6560059,0,3.2050781.3828125,4.6032715,1.1367188,2.4082031,1.296875,3.7880859,3.4453125,4.1005859,6.3867188h0ZM5.3674421,50.203125c.6308594,1.34375,1.6074219,2.53125,2.984375,3.625,1.7353516,1.3789062,3.7246094,2.2304688,5.2636719,2.8164062,3.5234365,1.3398438,7.1386709,2.0742188,10.7470694,2.1796875.4130859.0117188.8271484.0195312,1.2431641.0195312,1.6474609,0,3.3193359-.0976562,5.1123047-.2929688,3.9834003-.4414062,7.5283222-1.875,10.534914-4.2617188,3.2294922-2.5664062,5.4287109-6.0195312,6.7226562-10.5585938l.0722656-.2773438c.0390625-.1640625-.0263672-.3320312-.1640625-.4257812-.0683594-.046875-.1464844-.0703125-.2246094-.0703125-.0810547,0-.1621094.0234375-.2314453.0742188-2.9472656,2.0976562-5.8525391,3.140625-8.8808594,3.1953125-.1123047,0-.21875.0507812-.2927246.1328125-.1523438.1757812-.2941895.3515625-.435791.53125s-.2839355.3554688-.4343262.5273438c-2.4541016,2.8085938-5.5996113,4.4726562-9.3466816,4.9375-.7099609.0859375-1.4287109.1328125-2.1367188.1328125-2.4423828,0-4.8652344-.5273438-7.2011719-1.5625-5.1230459-2.2734375-8.6552725-5.9921875-10.4970694-11.046875-.1035156-.28125-.1953125-.5703125-.2822266-.8554688-.046875-.15625-.1835938-.2695312-.3457031-.2851562h-.0371094c-.1484375,0-.2861328.0820312-.3554688.2148438-1.2050781,2.328125-1.9248047,4.3671875-2.2636719,6.4179688-.3222656,1.9492188-.1796875,3.484375.4492188,4.8320312h0ZM11.2082624,22.4960938l-.1455078.1367188c-.4052734.3789062-.7871094.7382812-1.1513672,1.1328125-1.7548828,1.9179688-2.7851562,4.3359375-3.0615234,7.1875-.0683594.703125-.0791016,1.4179688-.0898438,2.1132812l-.0019531.1210938c-.0048828.3554688-.0107422.7109375-.0253906,1.0664062l-.0185547.140625c-.0107422.078125-.0449219.1523438-.0966797.2109375-1.2763672,1.4296875-2.3066406,3.109375-3.0625002,4.9921875-.0605469.1484375-.2050781.25-.3662109.25h-.0048828c-.1601562,0-.3046875-.09375-.3671875-.2421875-.3701172-.859375-.7236328-1.6914062-1.0371093-2.5195312-.9902344-2.6210938-1.5556641-5.0507812-1.7294922-7.4335938-.1748047-2.421875.1054688-4.375.8837891-6.1523438,1.0937501-2.4960938,3.0800782-4.2148438,6.0732422-5.25.5400391-.1875,1.0888672-.3359375,1.6669922-.4882812l.2480469-.0703125c.0341797-.0078125.0693359-.0117188.1044922-.0117188.0703125,0,.1396484.0195312.2011719.0546875.0917969.0546875.1591797.140625.1855469.2460938.3759766,1.4453125.9970703,2.7890625,1.8476562,3.9921875.1142578.1640625.0917969.3867188-.0527344.5234375h0ZM38.7998161,2.6484375C36.5107536,1.0507812,33.9221305.1679688,31.1047458.0273438c-.328125-.0195312-.65625-.0273438-.984375-.0273438-3.3066406,0-6.5332031.84375-9.5888672,2.5117188-3.0800781,1.6757812-5.4033194,3.7578125-7.1044912,6.3671875-2.3798828,3.6484375-2.3027344,8.1601562.1992188,11.7773438.0761719.109375.2001953.171875.3291016.171875.0419922,0,.0839844-.0078125.125-.0195312,1.7158203-.5625,3.1357412-.890625,4.4677725-1.0234375.1904297-.0195312.3398438-.1679688.3583984-.359375.0341797-.3632812.0625-.7265625.0927734-1.1210938.0654297-.84375.1328125-1.71875.3076172-2.5625.7646484-3.671875,2.8242188-6.2929688,6.1230469-7.7890625,1.9013672-.8632812,3.9570312-1.28125,6.2871094-1.28125.28125,0,.5664082.0078125.8955097.0195312.0546875,0,.1943359-.0078125.3369141-.078125.3320312-.2109375.6601562-.4296875.9921875-.6523438.5546875-.3671875,1.1276855-.7539062,1.7285156-1.0820312.8864746-.484375,1.7841797-.9179688,2.767334-1.3945312l.3066406-.1484375c.1279297-.0625.2138672-.1875.2246094-.328125.0117188-.140625-.0527344-.2773438-.1689453-.359375h0ZM61.0293083,21.5585938c-.3291016,3.2304688-1.1064453,6.0820312-2.375,8.7226562-1.5517578,3.2265625-3.7412109,5.8789062-6.5068359,7.8828125-.0703125.0546875-.1523438.078125-.234375.078125-.09375,0-.1865234-.03125-.2607422-.0976562-.140625-.1210938-.1796875-.3203125-.0947266-.4882812.0742188-.140625.1464844-.28125.2167969-.4257812,2.109375-4.2851562,3.0605469-8.4257812,2.9101562-12.6640625-.0732422-2.0078125-.4023438-3.796875-1.0058594-5.46875-.8779297-2.4296875-2.5957031-4.2929688-5.2509766-5.703125-1.9501953-1.0351562-4.0673828-1.484375-5.8818359-1.7890625-.3037109-.0546875-.4658203-.1523438-.6210938-.3710938-.9619141-1.375-2.3300781-2.3828125-4.3024902-3.171875l-.4660645-.1835938c-.1433105-.0546875-.2438965-.1835938-.2565918-.3398438-.013916-.1523438.0625-.3007812.1950684-.3789062,2.4541016-1.4414062,4.6679688-2.3710938,6.9677734-2.9179688.7070312-.1679688,1.4296875-.2539062,2.1484375-.2539062,1.3037109,0,2.6162109.2695312,4.0136719.8203125,3.8378906,1.5195312,6.671875,3.8007812,8.6630859,6.9726562,1.7939453,2.859375,2.5146484,6.1484375,2.1416016,9.7773438h0ZM64.1074295,24.8476562c-.0693359-.0507812-.1513634-.078125-.2353477-.078125-.0478516,0-.0947266.0078125-.140625.0273438-.1259766.046875-.2197266.1523438-.25.2851562-.6601562,2.921875-1.6943359,5.6601562-3.0732422,8.1367188-2.2753906,4.0820312-5.1503906,6.8828125-8.7890625,8.5546875-.1191406.0546875-.203125.1640625-.2265625.2929688-.0410156.2265625-.0683594.4570312-.0947266.6914062-.0341797.3085938-.0712891.6171875-.1386719.9179688-.2167969.9648438-.4511719,1.9257812-.7099609,2.9804688l-.1171875.4804688c-.0302734.125,0,.2539062.0820312.3515625.0761719.09375.1884766.1445312.3066406.1445312h.0253906c1.7460938-.109375,3.5146484-.5390625,5.4072266-1.3085938,3.0986328-1.265625,5.8955078-3.1601562,8.3144493-5.6328125,1.9296875-1.96875,3.1757812-3.8476562,3.9208984-5.9101562.9326172-2.5703125.6210938-4.8046875-.9521484-6.828125-.8232422-1.0546875-1.9121094-2.0703125-3.3291016-3.1054688h0Z"/>
    </g>
  </g>
</svg>