<?xml version="1.0" encoding="UTF-8"?>
<svg xmlns="http://www.w3.org/2000/svg" version="1.1" viewBox="0 0 62.6187553 56.5429688">
  <defs>
    <style>
      .cls-1 {
        fill: #e3000f;
      }
    </style>
  </defs>
  <!-- Generator: Adobe Illustrator 28.7.4, SVG Export Plug-In . SVG Version: 1.2.0 Build 166)  -->
  <g>
    <g id="Ebene_1">
      <path class="cls-1" d="M62.6187553,28.2753906L35.8702202.1552734c-.0981445-.1035156-.2299805-.1552734-.3623047-.1552734-.1240234,0-.2480469.0458984-.3447266.1376953l-7.8894024,7.5041504c-.0961914.0915527-.1518555.2165527-.1552734.3493652-.0031738.1328125.0463867.2607422.1376953.3574219l18.9538555,19.9267578-18.946043,19.9189453c-.0913086.0966797-.140625.2246094-.1376953.3574219.0031738.1328125.0595703.2578125.1552734.3496094l7.8894024,7.5039062c.0966797.0917969.2207031.1376953.3447266.1376953.1318359,0,.2641602-.0517578.3623047-.1552734l26.7407227-28.1123047h0ZM35.500103,28.2753906L8.7523012.1552734c-.0983887-.1035156-.2299805-.1552734-.3623047-.1552734-.1240234,0-.248291.0458984-.3447266.1376953L.1556218,7.6418457C.0591862,7.7333984.0037663,7.8583984.0001042,7.9912109c-.0026855.1328125.0466309.2607422.1376953.3574219l18.9541023,19.9267578L.2125065,48.1230469c-.0913086.0966797-.1403809.2246094-.1376953.3574219.0036621.1328125.059082.2578125.1555176.3496094l7.8896482,7.5039062c.0964355.0917969.2207031.1376953.3447266.1376953.1315918,0,.2641602-.0517578.3623047-.1552734l26.6730947-28.0410156h0Z"/>
    </g>
  </g>
</svg>