<?xml version="1.0" encoding="UTF-8"?>
<svg xmlns="http://www.w3.org/2000/svg" xmlns:xlink="http://www.w3.org/1999/xlink" version="1.1" viewBox="0 0 96.2574487 77.4819687">
  <defs>
    <style>
      .cls-1 {
        fill: none;
      }

      .cls-2 {
        fill: #e3000f;
      }

      .cls-3 {
        clip-path: url(#clippath);
      }
    </style>
    <clipPath id="clippath">
      <rect class="cls-1" x=".0000997" y=".0001572" width="96.257349" height="77.4817505"/>
    </clipPath>
  </defs>
  <!-- Generator: Adobe Illustrator 28.7.4, SVG Export Plug-In . SVG Version: 1.2.0 Build 166)  -->
  <g>
    <g id="Ebene_1">
      <g id="Ebene_1-2" data-name="Ebene_1">
        <g class="cls-3">
          <g>
            <path class="cls-2" d="M96.2573801,11.9368656L82.7503839,0c-11.347084,9.5497521-19.3501282,18.956786-24.0027008,28.2148674-4.6568756,9.2613029-6.9831619,17.5794563-6.9831619,24.9591827,0,7.2365761,1.9638977,13.0964699,5.8908424,17.5801048,3.9271545,4.4864349,8.8748436,6.7278137,14.8396263,6.7278137,4.5072784,0,8.2884903-1.085228,11.3436356-3.2556839,3.0555801-2.1702423,5.2400055-4.8460159,6.5485611-8.0301285,1.3087616-3.1808853,1.7429352-6.5449028,1.3087616-10.0922623-.4371872-3.5434875-1.820755-6.6910591-4.1468277-9.4409943-4.0728836-4.628933-5.5656357-9.5497513-4.4735336-14.7585907,1.0923233-5.2088413,5.4837494-11.8622856,13.1818008-19.9674358"/>
            <path class="cls-2" d="M35.5684076,22.8974198c2.1098442-3.2554703,5.0463448-6.9077206,8.8176689-10.9606133L30.8782182.0001509C19.531571,9.5496939,11.52809,18.9569424,6.8755146,28.2148064,2.2194984,37.4761131-.0726147,45.7607315.0017528,53.0654457c.0711468,7.3079376,2.034403,13.2050133,5.8901988,17.6886482,3.8525729,4.4864273,8.7630763,6.7278214,14.7282882,6.7278214,4.5102863,0,8.2914982-1.085228,11.3470745-3.2554703,3.0521393-2.1704559,5.2698822-4.8460236,6.6532326-8.0303497,1.3839951-3.1808853,1.8551407-6.5449028,1.4211769-10.0920486-.4376183-3.543705-1.8209648-6.6910591-4.1476822-9.4412079-2.0346184-2.3125343-3.4521408-4.6663361-4.2527924-7.0536652-.8002167-2.3873329-.874588-4.9543533-.2200966-7.7049294.6544914-2.7467117,2.0380554-5.7515621,4.1472588-9.0068188"/>
          </g>
        </g>
      </g>
    </g>
  </g>
</svg>