<?xml version="1.0" encoding="UTF-8"?>
<svg xmlns="http://www.w3.org/2000/svg" version="1.1" viewBox="0 0 68.8553036 96.3779564">
  <!-- Generator: Adobe Illustrator 28.7.4, SVG Export Plug-In . SVG Version: 1.2.0 Build 166)  -->
  <g>
    <g id="Ebene_1">
      <g id="Ebene_1-2">
        <path d="M67.0570155,74.632679l-11.5051193-14.1253967c-1.4155579-1.716732-3.4635849-2.7106285-5.6320877-2.6805115-1.5962601,0-3.102169.5421257-4.3972473,1.566143l-5.3610268,4.0659447c-2.1082687-2.1685028-4.5478363-4.7887802-8.9149628-12.9507866-4.3972435-8.2523613-5.240551-11.8063011-5.9332657-14.8783493l6.1440926-2.7708664c3.4937019-1.5962639,5.3007889-5.8429146,4.1261826-9.7281494l-5.5417328-17.7395649c-.9938965-3.2226369-3.7948837-5.3911419-7.0777588-5.3911419-2.3793335.0903535-4.7586594,1.3854332-6.957283,2.2588582-4.5478363,1.776969-10.149807,3.1322837-12.4990158,7.890945-8.3427181,15.20965-.2409439,36.8344498,8.0415363,52.3151627,8.2222424,15.3903542,21.4742107,33.7624016,37.9488201,33.9129906h.2409439c1.3251953,0,2.6202774-.2710648,3.8249969-.7228394,1.5661469-.6023636,3.0118103-1.5661469,4.2165375-2.8311005l8.4631958-6.9874039.361412-.3915405c2.8311005-2.921463,3.0118103-7.6500015.4216537-10.8124008,0,0,.0301208,0,.0301285.0000076ZM30.3129206,24.9980316c.3011818.9637794-.150589,2.0480328-1.0240173,2.4395657l-7.137989,3.2226391c-1.9576759.8734283-3.0118103,3.0720482-2.4998016,5.2104301l.2108269.9637794c.7529526,3.3431129,1.6866112,7.4994087,6.5356293,16.6251984,4.8791351,9.1257858,7.7403526,12.0773621,10.0293312,14.4265747l.6324768.6625977c.8131905.8734283,1.9275589,1.3251953,3.0118103,1.2950821.8734283,0,1.7468491-.3011856,2.4696846-.9035416l6.2946854-4.8189011c.3312988-.2710648.7228317-.3915329,1.0842514-.3915329.5120087,0,1.0541382.2108231,1.3854294.6324768l11.5051193,14.1253967c.6324768.7830658.6023636,1.9576797-.1204758,2.7106323q-.2141876.2230988,0,0l-8.8848419,7.3789368c-1.1143646,1.1746063-2.6202774,1.837204-4.1864166,1.8673172h-.0903549c-7.6499977-.0301132-19.5767746-5.4513855-33.1901588-30.9313011C2.6644869,33.9129868,4.3812209,20.1490135,8.2363368,13.1314926c.8433094-1.5059052,2.1383839-2.5600405,3.7346458-3.0118113,0,0,10.8425217-4.2165346,10.9931107-4.2165346h0c.7529526,0,1.4757881.5120082,1.716732,1.3553143l5.5417328,17.7395687s.0903625,0,.0903625.0000019Z"/>
      </g>
    </g>
  </g>
</svg>