<?xml version="1.0" encoding="UTF-8"?>
<svg xmlns="http://www.w3.org/2000/svg" version="1.1" viewBox="0 0 60.5516805 51.8075259">
  <!-- Generator: Adobe Illustrator 28.7.4, SVG Export Plug-In . SVG Version: 1.2.0 Build 166)  -->
  <g>
    <g id="Ebene_1">
      <g>
        <path d="M49.0190138,11.1380618s-18.7518158,17.1021729-20.1072235,18.3929749c-.487915.4647217-1.9322815,1.7796936-2.3811035,2.9763794-.7654114,2.0410461-1.4342041,3.9448242-1.4342041,3.9448242-.0273743.2539978-.3646851.2868042-.436676.0434875l-2.3434143-8.2760925c-.1572876-.5309143.047821-1.1053772.4970093-1.3978882l25.5348969-16.6305237c.5870056-.3828735,1.1880035.46521.6707153.9468384h0Z"/>
        <path d="M59.383592.671448l-.2596893-.1817017c-.7432098-.5180054-1.6983032-.6333008-2.5448914-.3066101L1.744615,21.3862307C.6537946,21.8081363-.0464007,22.8774417.0023969,24.0454409c.0488281,1.1679993.8369141,2.1753235,1.9584961,2.5039062l12.4892883,3.6595764,5.25,16.5292969c.2895203.9111328,1.0341187,1.6035156,1.9638062,1.8271179.9273071.2226868,1.9077148-.0566101,2.5791321-.7372742l7.1611633-7.2559509,14.6063232,10.6358337c.5370941.3964844,1.1737823.5995789,1.8144989.5995789.3701019,0,.7411957-.0673828,1.0947113-.2050781.973587-.3700867,1.6815796-1.1953125,1.8925781-2.2041016L60.4929975,3.4721377c.2256012-1.0717163-.2108917-2.1748047-1.1094055-2.8006897h0ZM54.1804975,6.961426l-7.9393921,37.6644897-11.6230164-8.4648743c-.9551086-.6962891-2.0820007-1.0361023-3.2051086-1.0361023-1.4237976,0-2.8407898.547821-3.8924866,1.6133118l-3.9872742,4.0409851-3.8824158-12.2236938c-.550293-1.7295227-1.9188843-3.0686951-3.6665039-3.5842896l-4.7679749-1.3965149L54.1804975,6.961426h0Z"/>
        <polygon points="45.472505 48.2714236 45.4715132 48.2773135 45.472505 48.2714236 45.472505 48.2714236"/>
        <path d="M49.2157148,46.7919314l.0194702.0137024c-.0067902-.0038757-.0136719-.0086975-.0194702-.0137024h0Z"/>
      </g>
    </g>
  </g>
</svg>